ply
format ascii 1.0
element vertex 20
property float x
property float y
property float z
element face 36
property list uchar int vertex_index
end_header
3.5773502691896257 3.5773502691896257 0.5773502691896258
3 3.35682208977309 0.9341723589627159
3 2.64317791022691 0.9341723589627159
3.5773502691896257 2.4226497308103743 0.5773502691896258
3.9341723589627158 3 0.35682208977308993
3.9341723589627158 3 -0.35682208977308993
3.5773502691896257 3.5773502691896257 -0.5773502691896258
3.35682208977309 3.9341723589627158 0
2.64317791022691 3.9341723589627158 0
2.4226497308103743 3.5773502691896257 0.5773502691896258
3 3.35682208977309 -0.9341723589627159
2.4226497308103743 3.5773502691896257 -0.5773502691896258
3.5773502691896257 2.4226497308103743 -0.5773502691896258
3 2.64317791022691 -0.9341723589627159
2.4226497308103743 2.4226497308103743 0.5773502691896258
2.64317791022691 2.0658276410372842 0
3.35682208977309 2.0658276410372842 0
2.0658276410372842 3 -0.35682208977308993
2.0658276410372842 3 0.35682208977308993
2.4226497308103743 2.4226497308103743 -0.5773502691896258
3 0 1 2
3 0 2 3
3 0 3 4
3 0 4 5
3 0 5 6
3 0 6 7
3 0 7 8
3 0 8 9
3 0 9 1
3 6 10 11
3 6 11 8
3 6 8 7
3 6 5 12
3 6 12 13
3 6 13 10
3 3 2 14
3 3 14 15
3 3 15 16
3 3 16 12
3 3 12 5
3 3 5 4
3 9 8 11
3 9 11 17
3 9 17 18
3 9 18 14
3 9 14 2
3 9 2 1
3 12 16 15
3 12 15 19
3 12 19 13
3 11 10 13
3 11 13 19
3 11 19 17
3 14 18 17
3 14 17 19
3 14 19 15
