ply
format ascii 1.0
element vertex 32
property float x
property float y
property float z
element face 60
property list uchar int vertex_index
end_header
0.8090	0.2629	1.1135
0.0000	0.8507	1.1135
-0.8090	0.2629	1.1135
-0.5000	-0.6882	1.1135
0.5000	-0.6882	1.1135
1.3090	0.4253	0.2629
0.8090	1.1135	-0.2629
0.0000	1.3764	0.2629
-0.8090	1.1135	-0.2629
-1.3090	0.4253	0.2629
-1.3090	-0.4253	-0.2629
-0.8090	-1.1135	0.2629
0.0000	-1.3764	-0.2629
0.8090	-1.1135	0.2629
1.3090	-0.4253	-0.2629
0.8090	-0.2629	-1.1135
0.5000	0.6882	-1.1135
-0.5000	0.6882	-1.1135
-0.8090	-0.2629	-1.1135
0.0000	-0.8507	-1.1135

0.0000	0.0000	5.2901
2.7812	3.8279	2.3658
-2.7812	3.8279	2.3658
-4.5000	-1.4621	2.3658
0.0000	-4.7316	2.3658
4.5000	-1.4621	2.3658
4.5000	1.4621	-2.3658
0.0000	4.7316	-2.3658
-4.5000	1.4621	-2.3658
-2.7812	-3.8279	-2.3658
2.7812	-3.8279	-2.3658
0.0000	0.0000	-5.2901


3 0 1 20
3 1 7 21
3 1 2 22
3 2 9 23
3 3 11 24
3 4 13 25
3 14 5 26
3 16 6 27
3 8 9 28
3 18 10 29
3 12 19 30
3 15 16 31

3 1 2 20
3 7 6 21
3 2 9 22
3 9 10 23
3 11 12 24
3 13 14 25
3 5 6 26
3 6 7 27
3 9 10 28
3 10 11 29
3 19 15 30
3 16 17 31

3 2 3 20
3 6 5 21
3 9 8 22
3 10 11 23
3 12 13 24
3 14 5 25
3 6 16 26
3 7 8 27
3 10 18 28
3 11 12 29
3 15 14 30
3 17 18 31

3 3 4 20
3 5 0 21 
3 8 7 22
3 11 3 23
3 13 4 24
3 5 0 25
3 16 15 26
3 8 17 27
3 18 17 28
3 12 19 29
3 14 13 30
3 18 19 31

3 4 0 20
3 0 1 21
3 7 1 22
3 3 2 23
3 4 3 24
3 0 4 25
3 15 14 26
3 17 16 27
3 17 8 28
3 19 18 29
3 13 12 30
3 19 15 31

