ply
format ascii 1.0
element vertex 44
property float x
property float y
property float z
element face 16
property list uchar int vertex_index
end_header
0.625	-0.125	1.125
-0.5	-0.125	0.625
-0.5	1.875	0.625
0.625	1.875	1.125
1.75	-0.125	0.625
1.75	1.875	0.625
1.25	0	0.825
1.25	1.75	0.825
1.25	1.75	0
1.25	0	0
0.125	0	0.475
0.325	0	0.475
0.325	0	0.575
0.125	0	0.575
0.125	0	0.475
0.525	0	0.475
0.525	0	0.575
0.325	0	0.675
0.125	0	0.675
0.525	0	0.675
0	0	0
1.25	0	0.825
1.25	1.75	0.825
1.25	1.75	0
0	1.75	0
0	1.75	0.825
1.25	0	0
0	0	0.825
0.875	0	0
0.875	0	0.375
1.125	0	0.375
1.125	0	0
2.25	-1	0
2.25	3.25	0
-1	3.25	0
-1	-1	0
0.875	0.5	1.0165
0.875	0.625	1.0165
0.75	0.625	1.0695
0.75	0.5	1.0695
0.75	0.5	1.225
0.875	0.5	1.225
0.875	0.625	1.225
0.75	0.625	1.225

			
	
4	0 3 2 1
4	0 3 5 4
4	10 11 12 14
4	11 12 16 15
4	12 16 19 17
4	11 15 16 12
4	20 26 21 27
4	24 23 22 25
4	20 24 25 27
4	26 23 22 21
4	28 29 30 31
4	32 33 34 35
4	36 37 42 41
4	37 38 43 42
4	38 39 40 43
4	36 37 40 41


